<?xml version="1.0" encoding="UTF-8"?>
<svg width="250px" height="87px" viewBox="0 0 303 87" version="1.1" xmlns="http://www.w3.org/2000/svg" xmlns:xlink="http://www.w3.org/1999/xlink">
    <title>sharedo</title>
    <g id="Page-1" stroke="none" strokeWidth="1" fill="none" fillRule="evenodd">
        <g id="logo4" transform="translate(-124.000000, -78.000000)" fillRule="nonzero">
            <g id="sharedo" transform="translate(124.500000, 78.456000)">
                <path d="M21.1,84.644 C26.2333333,84.644 30.4666667,83.5106667 33.8,81.244 C38.0666667,78.444 40.2,74.5106667 40.2,69.444 C40.2,63.3106667 37.1,59.0773333 30.9,56.744 C29.5666667,56.4106667 28.15,56.0606667 26.65,55.694 C25.15,55.3273333 23.7333333,54.944 22.4,54.544 C21.0666667,54.2106667 19.75,53.8606667 18.45,53.494 C17.15,53.1273333 15.8333333,52.7773333 14.5,52.444 L14.5,52.444 L14.7,52.444 C9.83333333,50.7106667 7.4,48.044 7.4,44.444 C7.4,41.7106667 8.7,39.5773333 11.3,38.044 C13.5666667,36.7773333 16.4,36.144 19.8,36.144 C28.8666667,36.144 33.4,40.6106667 33.4,49.544 L33.4,49.544 L38.9,49.544 C38.9,36.8773333 32.5333333,30.544 19.8,30.544 C15.1333333,30.544 11.1666667,31.544 7.9,33.544 L7.9,33.544 L8,33.544 C3.86666667,36.144 1.8,39.7773333 1.8,44.444 C1.8,50.5773333 4.86666667,54.8106667 11,57.144 C12.3333333,57.544 13.7666667,57.944 15.3,58.344 C16.8333333,58.744 18.2666667,59.1106667 19.6,59.444 C20.9333333,59.7773333 22.25,60.1106667 23.55,60.444 C24.85,60.7773333 26.1666667,61.1106667 27.5,61.444 L27.5,61.444 L27.3,61.444 C32.2333333,63.1773333 34.7,65.9106667 34.7,69.644 C34.7,72.7773333 33.3,75.144 30.5,76.744 C28.0333333,78.2773333 24.9,79.044 21.1,79.044 C10.7,79.044 5.5,73.8106667 5.5,63.344 L5.5,63.344 L-8.52651283e-14,63.344 C-8.52651283e-14,77.544 7.03333333,84.644 21.1,84.644 Z M51.7,83.544 L51.7,54.644 C51.7,52.244 52.0333333,49.944 52.7,47.744 C53.3666667,45.544 54.35,43.6273333 55.65,41.994 C56.95,40.3606667 58.5666667,39.044 60.5,38.044 C62.4333333,37.044 64.6666667,36.544 67.2,36.544 C69,36.544 70.7,36.8106667 72.3,37.344 C73.9,37.8773333 75.3,38.694 76.5,39.794 C77.7,40.894 78.6666667,42.3106667 79.4,44.044 C80.1333333,45.7773333 80.5,47.8773333 80.5,50.344 L80.5,50.344 L80.5,83.544 L86,83.544 L86,50.044 C86,46.9773333 85.5333333,44.2606667 84.6,41.894 C83.6666667,39.5273333 82.3666667,37.544 80.7,35.944 C79.0333333,34.344 77.05,33.1273333 74.75,32.294 C72.45,31.4606667 69.9333333,31.044 67.2,31.044 C63.7333333,31.044 60.7333333,31.6273333 58.2,32.794 C55.6666667,33.9606667 53.5666667,35.5773333 51.9,37.644 L51.9,37.644 L51.7,13.544 L46.1,13.544 L46.1,83.544 L51.7,83.544 Z M112.7,84.644 C120.033333,84.644 125.866667,81.8106667 130.2,76.144 C130.266667,76.0773333 130.316667,76.0106667 130.35,75.944 C130.383333,75.8773333 130.433333,75.8106667 130.5,75.744 L130.5,75.744 L130.5,83.544 L136.1,83.544 L136.1,31.644 L130.5,31.644 L130.5,39.444 C128.3,36.5773333 125.716667,34.3773333 122.75,32.844 C119.783333,31.3106667 116.466667,30.544 112.8,30.544 C105.533333,30.544 99.6666667,33.344 95.2,38.944 C91.3333333,43.8773333 89.4,50.0773333 89.4,57.544 C89.4,65.0773333 91.3,71.2773333 95.1,76.144 C99.5666667,81.8106667 105.433333,84.644 112.7,84.644 Z M112.8,79.044 C107.066667,79.044 102.633333,76.8773333 99.5,72.544 C96.4333333,68.4773333 94.9,63.4773333 94.9,57.544 C94.9,51.544 96.4666667,46.5773333 99.6,42.644 C102.733333,38.3106667 107.133333,36.144 112.8,36.144 C118.333333,36.144 122.733333,38.3106667 126,42.644 C129,46.7773333 130.5,51.744 130.5,57.544 C130.5,63.4106667 129,68.4106667 126,72.544 C122.733333,76.8773333 118.333333,79.044 112.8,79.044 Z M148.8,83.544 L148.8,54.644 C148.8,52.3106667 149.166667,50.0273333 149.9,47.794 C150.633333,45.5606667 151.783333,43.594 153.35,41.894 C154.916667,40.194 156.883333,38.844 159.25,37.844 C161.616667,36.844 164.433333,36.444 167.7,36.644 L167.7,36.644 L167.7,31.044 C163.166667,30.9106667 159.333333,31.544 156.2,32.944 C153.066667,34.344 150.6,36.1106667 148.8,38.244 L148.8,38.244 L148.8,32.144 L143.2,32.144 L143.2,83.544 L148.8,83.544 Z M185.5,84.644 C191.5,84.644 196.5,82.8773333 200.5,79.344 C204.566667,75.744 207.066667,70.344 208,63.144 L208,63.144 L202.4,63.144 C201.666667,68.144 199.783333,72.044 196.75,74.844 C193.716667,77.644 189.9,79.044 185.3,79.044 C179.433333,79.044 175.066667,77.0106667 172.2,72.944 L172.2,72.944 L172.2,73.044 C169.933333,69.844 168.633333,65.4106667 168.3,59.744 L168.3,59.744 L208.2,59.744 C208.2,55.344 207.766667,51.4106667 206.9,47.944 C206.033333,44.4773333 204.7,41.5106667 202.9,39.044 C198.833333,33.3773333 193.033333,30.544 185.5,30.544 C178.566667,30.544 172.866667,33.444 168.4,39.244 C164.6,44.3773333 162.7,50.4773333 162.7,57.544 C162.7,65.4106667 164.433333,71.7106667 167.9,76.444 C171.766667,81.9106667 177.633333,84.644 185.5,84.644 Z M202.7,54.244 L168.4,54.244 C168.666667,51.7773333 169.183333,49.5606667 169.95,47.594 C170.716667,45.6273333 171.766667,43.8106667 173.1,42.144 C176.3,38.144 180.5,36.144 185.7,36.144 C191.033333,36.144 195.233333,38.0773333 198.3,41.944 C200.966667,45.2773333 202.433333,49.3773333 202.7,54.244 L202.7,54.244 Z" id="share" fill="white"></path>
                <path d="M213.152,82.246 C214.646667,84.606 217.360667,85.7073333 221.294,85.55 C223.575333,85.4713333 225.699333,84.8223333 227.666,83.603 C229.632667,82.3836667 231.324,80.9086667 232.74,79.178 C233.290667,81.066 234.254333,82.6 235.631,83.78 C237.007667,84.96 239.033333,85.5106667 241.708,85.432 C243.753333,85.3533333 246.113333,84.2913333 248.788,82.246 C251.462667,80.2006667 254.176667,77.6833333 256.93,74.694 C257.559333,73.986 258.208333,73.1403333 258.877,72.157 C259.545667,71.1736667 260.194667,70.2493333 260.824,69.384 C261.374667,68.5186667 262.161333,67.4566667 263.184,66.198 C263.970667,64.9393333 264.226333,63.8576667 263.951,62.953 C263.675667,62.0483333 263.125,61.4386667 262.299,61.124 C261.473,60.8093333 260.509333,60.7896667 259.408,61.065 C258.306667,61.3403333 257.362667,61.9893333 256.576,63.012 C255.868,64.3493333 255.022333,65.726 254.039,67.142 C253.055667,68.558 251.974,69.8166667 250.794,70.918 C249.142,72.57 247.726,73.868 246.546,74.812 C245.366,75.756 244.579333,76.2673333 244.186,76.346 C244.028667,75.9526667 244.166333,74.7923333 244.599,72.865 C245.031667,70.9376667 245.602,68.794 246.31,66.434 C246.782,64.8606667 247.352333,63.189 248.021,61.419 C248.689667,59.649 249.417333,57.82 250.204,55.932 L250.204,55.932 L252.092,51.212 L252.092,50.386 C255.081333,42.5193333 258.11,34.81 261.178,27.258 C264.246,19.706 267.55,11.8786667 271.09,3.776 C271.640667,2.43866667 271.385,1.475 270.323,0.885 C269.261,0.295 267.864667,2.20268248e-13 266.134,2.20268248e-13 C264.718,2.20268248e-13 263.243,0.216333333 261.709,0.649 C260.175,1.08166667 259.093333,1.73066667 258.464,2.596 C255.474667,9.204 252.721333,15.635 250.204,21.889 C247.686667,28.143 245.287333,34.22 243.006,40.12 C242.376667,39.4906667 241.786667,39.1366667 241.236,39.058 C240.685333,38.9793333 239.977333,38.9006667 239.112,38.822 L239.112,38.822 L238.994,38.822 C236.319333,38.7433333 233.566,39.412 230.734,40.828 C227.902,42.244 225.247,44.1713333 222.769,46.61 C220.291,49.0486667 218.088333,51.8806667 216.161,55.106 C214.233667,58.3313333 212.798,61.714 211.854,65.254 C211.224667,68.0073333 210.91,70.7213333 210.91,73.396 C210.91,76.936 211.657333,79.886 213.152,82.246 Z M223.536,76.346 C223.142667,76.346 222.867333,76.11 222.71,75.638 C222.552667,75.166 222.474,74.576 222.474,73.868 C222.474,73.2386667 222.552667,72.4913333 222.71,71.626 C222.867333,70.7606667 223.044333,69.9346667 223.241,69.148 C223.437667,68.3613333 223.614667,67.6533333 223.772,67.024 C223.929333,66.3946667 224.047333,65.962 224.126,65.726 C224.598,63.4446667 225.345333,61.2223333 226.368,59.059 C227.390667,56.8956667 228.511667,54.988 229.731,53.336 C230.950333,51.684 232.209,50.3663333 233.507,49.383 C234.805,48.3996667 236.004667,47.9473333 237.106,48.026 C237.814,48.1046667 238.305667,48.3996667 238.581,48.911 C238.856333,49.4223333 238.994,50.032 238.994,50.74 C238.286,52.392 237.538667,54.3586667 236.752,56.64 C235.965333,58.9213333 235.218,61.1633333 234.51,63.366 L234.51,63.366 L234.51,63.248 C233.015333,66.788 231.324,69.8363333 229.436,72.393 C227.548,74.9496667 225.581333,76.2673333 223.536,76.346 Z M263.656,85.904 C265.937333,85.904 268.277667,85.255 270.677,83.957 C273.076333,82.659 275.456,80.9086667 277.816,78.706 C278.445333,78.8633333 279.192667,79.001 280.058,79.119 C280.923333,79.237 281.828,79.2173333 282.772,79.06 C284.424,78.9813333 286.115333,78.529 287.846,77.703 C289.576667,76.877 291.248333,75.815 292.861,74.517 C294.473667,73.219 295.988,71.744 297.404,70.092 C298.82,68.44 300.039333,66.7093333 301.062,64.9 C301.691333,63.0906667 301.829,61.7533333 301.475,60.888 C301.121,60.0226667 300.550667,59.4916667 299.764,59.295 C298.977333,59.0983333 298.131667,59.1966667 297.227,59.59 C296.322333,59.9833333 295.634,60.534 295.162,61.242 C295.162,61.3206667 295.122667,61.3993333 295.044,61.478 C294.965333,61.5566667 294.847333,61.7533333 294.69,62.068 C294.69,62.1466667 294.650667,62.186 294.572,62.186 L294.572,62.186 L294.56964,62.27096 C294.563347,62.3716533 294.544467,62.422 294.513,62.422 C294.473667,62.422 294.454,62.4613333 294.454,62.54 L294.454,62.54 L294.454,62.422 C290.284667,68.086 286.862667,70.9573333 284.188,71.036 L284.188,71.036 L284.07,71.036 C284.935333,69.7773333 285.722,68.4596667 286.43,67.083 C287.138,65.7063333 287.806667,64.2706667 288.436,62.776 C290.166667,58.3706667 291.032,54.28 291.032,50.504 C291.032,46.8853333 290.206,43.9746667 288.554,41.772 C286.902,39.5693333 284.502667,38.468 281.356,38.468 C279.074667,38.6253333 276.99,39.5103333 275.102,41.123 C273.214,42.7356667 271.68,44.722 270.5,47.082 C269.005333,47.2393333 267.707333,47.5933333 266.606,48.144 C265.504667,48.6946667 264.560667,49.324 263.774,50.032 C262.987333,50.74 262.397333,51.4086667 262.004,52.038 C261.610667,52.6673333 261.374667,53.0606667 261.296,53.218 L261.296,53.218 L261.414,53.1 C260.548667,54.4373333 259.722667,55.7943333 258.936,57.171 C258.149333,58.5476667 257.52,60.062 257.048,61.714 L257.048,61.714 L257.048,61.478 C255.16,65.962 254.216,70.1706667 254.216,74.104 C254.216,77.644 255.022333,80.4956667 256.635,82.659 C258.247667,84.8223333 260.588,85.904 263.656,85.904 Z M277.816,65.136 C277.58,63.72 277.462,62.2646667 277.462,60.77 C277.462,59.2753333 277.560333,57.8003333 277.757,56.345 C277.953667,54.8896667 278.229,53.5523333 278.583,52.333 C278.937,51.1136667 279.35,50.091 279.822,49.265 C280.294,48.439 280.766,47.908 281.238,47.672 C281.474,47.7506667 281.71,48.0063333 281.946,48.439 C282.182,48.8716667 282.3,49.7173333 282.3,50.976 C282.3,52.0773333 282.103333,53.4736667 281.71,55.165 C281.316667,56.8563333 280.608667,58.9213333 279.586,61.36 C278.878,63.0906667 278.288,64.3493333 277.816,65.136 Z M266.488,76.582 C265.78,76.582 265.426,75.6773333 265.426,73.868 C265.426,72.7666667 265.622667,71.4096667 266.016,69.797 C266.409333,68.1843333 266.920667,66.4733333 267.55,64.664 C267.786,66.4733333 268.179333,68.145 268.73,69.679 C269.280667,71.213 270.067333,72.6486667 271.09,73.986 C269.202,75.7166667 267.668,76.582 266.488,76.582 Z" id="do" fill="#F34141"></path>
            </g>
        </g>
    </g>
</svg>